<?xml version="1.0" encoding="UTF-8"?>
<!DOCTYPE svg PUBLIC "-//W3C//DTD SVG 1.1//EN" "http://www.w3.org/Graphics/SVG/1.1/DTD/svg11.dtd">
<svg xmlns="http://www.w3.org/2000/svg" version="1.1" width="256px" height="256px" style="shape-rendering:geometricPrecision; text-rendering:geometricPrecision; image-rendering:optimizeQuality; fill-rule:evenodd; clip-rule:evenodd" xmlns:xlink="http://www.w3.org/1999/xlink">
<g><path style="opacity:1" fill="#f3bd31" d="M -0.5,-0.5 C 54.1667,-0.5 108.833,-0.5 163.5,-0.5C 163.12,2.7916 164.453,5.12494 167.5,6.5C 168.386,7.32496 168.719,8.32496 168.5,9.5C 167.038,8.54227 165.705,7.37561 164.5,6C 162.402,5.32239 160.402,5.48905 158.5,6.5C 156.665,7.12225 155.498,8.45559 155,10.5C 155.56,16.6996 153.727,22.0329 149.5,26.5C 148.534,28.396 148.201,30.396 148.5,32.5C 147.164,35.8377 145.831,39.1711 144.5,42.5C 142.815,43.1837 141.815,44.517 141.5,46.5C 140.675,47.3857 139.675,47.719 138.5,47.5C 138.31,51.9225 137.643,56.2559 136.5,60.5C 129.101,61.4844 121.768,61.4844 114.5,60.5C 113.032,54.7632 111.365,49.0966 109.5,43.5C 106.878,35.3442 105.044,27.0109 104,18.5C 103.385,15.6971 102.218,13.3637 100.5,11.5C 97.5609,5.80767 93.7275,5.141 89,9.5C 78.4824,24.5356 70.649,40.8689 65.5,58.5C 64.8826,58.6107 64.3826,58.944 64,59.5C 61.0682,68.955 60.9015,78.2883 63.5,87.5C 65.0525,94.2799 68.3858,99.9465 73.5,104.5C 73.4257,106.411 72.4257,107.578 70.5,108C 67.2423,108.212 64.0757,108.712 61,109.5C 60.3333,115.5 60.3333,121.5 61,127.5C 62.2737,131.885 64.4404,135.719 67.5,139C 65.2796,142.878 61.9463,144.378 57.5,143.5C 59.3879,148.576 61.5546,153.576 64,158.5C 66.9274,176.946 73.594,193.946 84,209.5C 86.5,213.333 89.6667,216.5 93.5,219C 100.523,221.24 107.189,224.074 113.5,227.5C 113.5,228.167 113.5,228.833 113.5,229.5C 111.757,230.641 110.757,232.308 110.5,234.5C 112.873,236.875 114.873,239.542 116.5,242.5C 116.709,243.922 117.209,245.255 118,246.5C 121.088,249.081 123.588,252.081 125.5,255.5C 83.5,255.5 41.5,255.5 -0.5,255.5C -0.5,170.167 -0.5,84.8333 -0.5,-0.5 Z"/></g>
<g><path style="opacity:1" fill="#f3bd31" d="M 163.5,-0.5 C 194.167,-0.5 224.833,-0.5 255.5,-0.5C 255.5,84.8333 255.5,170.167 255.5,255.5C 218.833,255.5 182.167,255.5 145.5,255.5C 146.301,253.958 146.634,252.292 146.5,250.5C 148.5,250.5 150.5,250.5 152.5,250.5C 152.335,247.15 152.502,243.817 153,240.5C 154.786,237.264 156.286,233.93 157.5,230.5C 160.226,228.581 162.059,225.914 163,222.5C 163.333,222.833 163.667,223.167 164,223.5C 164.499,218.177 164.666,212.844 164.5,207.5C 164.808,203.64 165.475,199.974 166.5,196.5C 169.189,192.084 171.689,187.417 174,182.5C 174.49,181.207 174.657,179.873 174.5,178.5C 175.657,174.024 177.99,170.358 181.5,167.5C 184.671,163.472 186.504,158.806 187,153.5C 188.802,152.211 189.969,150.544 190.5,148.5C 191.782,147.292 191.782,145.958 190.5,144.5C 188.149,142.771 185.482,142.104 182.5,142.5C 182.34,140.801 182.506,139.134 183,137.5C 184.421,135.595 185.588,133.595 186.5,131.5C 189.4,129.373 190.9,126.373 191,122.5C 193.988,119.919 195.154,116.586 194.5,112.5C 192.738,112.357 191.071,112.691 189.5,113.5C 188.859,112.007 187.859,111.007 186.5,110.5C 184.626,108.993 182.626,107.493 180.5,106C 182.07,103.941 183.403,101.774 184.5,99.5C 185.828,94.1733 187.161,88.84 188.5,83.5C 187.744,76.4485 186.744,69.4485 185.5,62.5C 185.639,53.7835 184.139,45.4501 181,37.5C 179.435,31.9369 178.269,26.2702 177.5,20.5C 176.583,19.8728 175.583,19.5394 174.5,19.5C 173.016,15.8677 171.016,12.5344 168.5,9.5C 168.719,8.32496 168.386,7.32496 167.5,6.5C 164.453,5.12494 163.12,2.7916 163.5,-0.5 Z"/></g>
<g><path style="opacity:1" fill="#d4ab46" d="M 174.5,19.5 C 175.583,19.5394 176.583,19.8728 177.5,20.5C 178.269,26.2702 179.435,31.9369 181,37.5C 184.139,45.4501 185.639,53.7835 185.5,62.5C 182.641,48.0666 178.974,33.7333 174.5,19.5 Z"/></g>
<g><path style="opacity:1" fill="#170a0e" d="M 176.5,104.5 C 176.5,104.833 176.5,105.167 176.5,105.5C 175.5,105.833 174.833,106.5 174.5,107.5C 173.833,107.5 173.167,107.5 172.5,107.5C 170.096,101.47 168.43,95.1363 167.5,88.5C 167.5,88.1667 167.5,87.8333 167.5,87.5C 168.117,87.3893 168.617,87.056 169,86.5C 169.499,81.5111 169.666,76.5111 169.5,71.5C 168.022,71.762 166.689,71.4287 165.5,70.5C 164.764,68.4595 163.931,66.4595 163,64.5C 162.056,65.263 161.556,66.263 161.5,67.5C 162.089,70.0217 162.755,72.5217 163.5,75C 163.164,76.0299 162.497,76.5299 161.5,76.5C 159.067,67.5004 157.734,58.3337 157.5,49C 158.098,37.7886 159.098,26.622 160.5,15.5C 164.575,15.3986 167.075,17.3986 168,21.5C 173.215,37.7942 175.882,54.4609 176,71.5C 174.5,78.4985 172.333,85.1652 169.5,91.5C 170.525,96.2677 171.858,100.934 173.5,105.5C 174.417,104.873 175.417,104.539 176.5,104.5 Z"/></g>
<g><path style="opacity:1" fill="#b69341" d="M 65.5,58.5 C 62.589,68.0099 61.9223,77.6766 63.5,87.5C 60.9015,78.2883 61.0682,68.955 64,59.5C 64.3826,58.944 64.8826,58.6107 65.5,58.5 Z"/></g>
<g><path style="opacity:1" fill="#d3a677" d="M 157.5,75.5 C 157.672,76.4916 157.338,77.1583 156.5,77.5C 149.388,75.8894 142.388,76.2227 135.5,78.5C 134.749,77.624 134.249,76.624 134,75.5C 133.179,82.3464 133.346,89.013 134.5,95.5C 134.232,101.954 134.898,108.287 136.5,114.5C 132.997,110.577 128.663,107.91 123.5,106.5C 119.572,108.429 115.905,110.762 112.5,113.5C 112.5,113.167 112.5,112.833 112.5,112.5C 114.353,109.792 115.353,106.792 115.5,103.5C 116.993,100.417 117.993,97.0835 118.5,93.5C 121.201,89.5914 122.034,85.2581 121,80.5C 120.751,81.624 120.251,82.624 119.5,83.5C 113.083,73.7116 104.75,71.8783 94.5,78C 89.3178,81.6617 85.9845,86.495 84.5,92.5C 88.1046,91.0371 91.7713,89.5371 95.5,88C 97.8098,87.5034 100.143,87.3367 102.5,87.5C 101.173,89.1816 99.5061,90.5149 97.5,91.5C 92.4743,93.6614 88.8076,97.1614 86.5,102C 87.3996,107.301 89.7329,111.801 93.5,115.5C 91.7354,116.461 89.7354,116.795 87.5,116.5C 81.8946,116.604 78.0612,119.27 76,124.5C 74.2338,129.1 74.0672,133.767 75.5,138.5C 73.7408,139.754 72.2408,139.421 71,137.5C 70.1143,133.974 67.9476,131.641 64.5,130.5C 62.1538,127.614 61.3204,124.28 62,120.5C 63.1133,122.329 64.6133,123.163 66.5,123C 63.8409,120.561 62.8409,117.728 63.5,114.5C 65.0983,115.485 66.765,115.651 68.5,115C 66.1558,114.163 64.1558,112.829 62.5,111C 65.4245,110.012 68.4245,109.346 71.5,109C 72.9423,108.623 73.9423,107.79 74.5,106.5C 76.0744,106.063 77.2411,105.063 78,103.5C 81.5897,84.5751 92.423,71.7418 110.5,65C 120.106,63.4425 129.772,63.1092 139.5,64C 146.675,66.0821 152.675,69.9154 157.5,75.5 Z"/></g>
<g><path style="opacity:1" fill="#1d1108" d="M 168.5,9.5 C 171.016,12.5344 173.016,15.8677 174.5,19.5C 178.974,33.7333 182.641,48.0666 185.5,62.5C 186.744,69.4485 187.744,76.4485 188.5,83.5C 187.161,88.84 185.828,94.1733 184.5,99.5C 182.116,101.885 179.45,103.885 176.5,105.5C 176.5,105.167 176.5,104.833 176.5,104.5C 178.771,102.734 180.937,100.734 183,98.5C 184.329,93.3515 185.496,88.1849 186.5,83C 184.224,67.0674 181.391,51.234 178,35.5C 175.89,27.9502 173.223,20.6169 170,13.5C 168.167,11.6667 166.333,9.83333 164.5,8C 162.299,7.1751 160.466,7.6751 159,9.5C 156.967,20.5703 152.967,30.9037 147,40.5C 144.204,47.0559 141.704,53.7226 139.5,60.5C 139.833,61.1667 140.167,61.8333 140.5,62.5C 148.666,65.4163 155.666,70.083 161.5,76.5C 164.274,79.7133 166.274,83.38 167.5,87.5C 167.5,87.8333 167.5,88.1667 167.5,88.5C 167.167,88.5 166.833,88.5 166.5,88.5C 164.662,83.3346 161.662,79.0013 157.5,75.5C 152.675,69.9154 146.675,66.0821 139.5,64C 129.772,63.1092 120.106,63.4425 110.5,65C 92.423,71.7418 81.5897,84.5751 78,103.5C 77.2411,105.063 76.0744,106.063 74.5,106.5C 74.5,105.833 74.5,105.167 74.5,104.5C 74.1667,104.5 73.8333,104.5 73.5,104.5C 68.3858,99.9465 65.0525,94.2799 63.5,87.5C 61.9223,77.6766 62.589,68.0099 65.5,58.5C 70.649,40.8689 78.4824,24.5356 89,9.5C 93.7275,5.141 97.5609,5.80767 100.5,11.5C 102.471,19.7899 104.304,28.1232 106,36.5C 106.898,39.0691 108.065,41.4024 109.5,43.5C 111.365,49.0966 113.032,54.7632 114.5,60.5C 117.938,61.8232 121.771,62.4898 126,62.5C 129.833,62.1667 133.667,61.8333 137.5,61.5C 139.248,54.9184 141.582,48.585 144.5,42.5C 145.831,39.1711 147.164,35.8377 148.5,32.5C 153.955,24.7068 157.288,16.0401 158.5,6.5C 160.402,5.48905 162.402,5.32239 164.5,6C 165.705,7.37561 167.038,8.54227 168.5,9.5 Z"/></g>
<g><path style="opacity:1" fill="#3c313c" d="M 167.5,87.5 C 166.274,83.38 164.274,79.7133 161.5,76.5C 162.497,76.5299 163.164,76.0299 163.5,75C 162.755,72.5217 162.089,70.0217 161.5,67.5C 161.556,66.263 162.056,65.263 163,64.5C 163.931,66.4595 164.764,68.4595 165.5,70.5C 166.689,71.4287 168.022,71.762 169.5,71.5C 169.666,76.5111 169.499,81.5111 169,86.5C 168.617,87.056 168.117,87.3893 167.5,87.5 Z"/></g>
<g><path style="opacity:1" fill="#ddab76" d="M 136.5,66.5 C 140.079,66.3163 143.413,66.983 146.5,68.5C 146.561,71.0495 147.894,72.5495 150.5,73C 145.175,73.1159 140.175,74.2825 135.5,76.5C 135.5,75.5 135.5,74.5 135.5,73.5C 132.654,73.8087 131.154,75.4754 131,78.5C 130.771,87.5635 129.938,96.5635 128.5,105.5C 128.629,98.7882 126.796,92.7882 123,87.5C 122.502,84.5184 122.335,81.5184 122.5,78.5C 120.712,78.7852 119.045,78.4519 117.5,77.5C 118.668,76.0944 118.335,74.9277 116.5,74C 119.238,72.6884 120.572,70.5217 120.5,67.5C 126.026,67.8214 131.36,67.4881 136.5,66.5 Z"/></g>
<g><path style="opacity:1" fill="#3d333f" d="M 176.5,104.5 C 175.417,104.539 174.417,104.873 173.5,105.5C 171.858,100.934 170.525,96.2677 169.5,91.5C 172.333,85.1652 174.5,78.4985 176,71.5C 175.882,54.4609 173.215,37.7942 168,21.5C 167.075,17.3986 164.575,15.3986 160.5,15.5C 159.098,26.622 158.098,37.7886 157.5,49C 157.734,58.3337 159.067,67.5004 161.5,76.5C 155.666,70.083 148.666,65.4163 140.5,62.5C 140.167,61.8333 139.833,61.1667 139.5,60.5C 141.704,53.7226 144.204,47.0559 147,40.5C 152.967,30.9037 156.967,20.5703 159,9.5C 160.466,7.6751 162.299,7.1751 164.5,8C 166.333,9.83333 168.167,11.6667 170,13.5C 173.223,20.6169 175.89,27.9502 178,35.5C 181.391,51.234 184.224,67.0674 186.5,83C 185.496,88.1849 184.329,93.3515 183,98.5C 180.937,100.734 178.771,102.734 176.5,104.5 Z"/></g>
<g><path style="opacity:1" fill="#d0aa46" d="M 144.5,42.5 C 141.582,48.585 139.248,54.9184 137.5,61.5C 133.667,61.8333 129.833,62.1667 126,62.5C 121.771,62.4898 117.938,61.8232 114.5,60.5C 121.768,61.4844 129.101,61.4844 136.5,60.5C 137.643,56.2559 138.31,51.9225 138.5,47.5C 139.675,47.719 140.675,47.3857 141.5,46.5C 141.815,44.517 142.815,43.1837 144.5,42.5 Z"/></g>
<g><path style="opacity:1" fill="#ae6661" d="M 171.5,44.5 C 171.5,45.1667 171.5,45.8333 171.5,46.5C 172.31,54.1552 172.477,61.8219 172,69.5C 170.989,68.6634 169.822,68.33 168.5,68.5C 167.836,65.1644 166.169,62.4978 163.5,60.5C 162.783,53.8558 162.95,47.1891 164,40.5C 165.458,39.2532 166.958,39.2532 168.5,40.5C 169.057,42.3316 170.057,43.6649 171.5,44.5 Z"/></g>
<g><path style="opacity:1" fill="#3d333e" d="M 81.5,87.5 C 79.7074,92.0453 78.2074,96.712 77,101.5C 76.6232,102.942 75.7899,103.942 74.5,104.5C 70.3298,99.5026 67.1631,93.8359 65,87.5C 64.3333,80.1667 64.3333,72.8333 65,65.5C 70.3181,44.699 79.4848,25.8657 92.5,9C 93.8333,8.33333 95.1667,8.33333 96.5,9C 99.9885,16.0571 102.155,23.5571 103,31.5C 106.599,41.4624 110.099,51.4624 113.5,61.5C 104.702,65.0635 96.7017,69.8968 89.5,76C 86.1945,79.4636 83.5279,83.297 81.5,87.5 Z"/></g>
<g><path style="opacity:1" fill="#190b0e" d="M 81.5,87.5 C 76.8263,80.451 74.4929,72.451 74.5,63.5C 75.4429,48.0654 79.9429,33.7321 88,20.5C 90.1079,17.2098 92.4413,16.8765 95,19.5C 96.7304,33.9704 95.897,48.3037 92.5,62.5C 89.1229,63.5806 87.4562,65.9139 87.5,69.5C 85.7988,69.0338 84.2988,69.0338 83,69.5C 80.8456,75.4053 80.3456,81.4053 81.5,87.5 Z"/></g>
<g><path style="opacity:1" fill="#905f5d" d="M 92.5,53.5 C 92.5,43.5 92.5,33.5 92.5,23.5C 91.448,23.3505 90.448,23.5172 89.5,24C 88.9678,26.4632 87.6345,28.2965 85.5,29.5C 91.3865,14.354 94.3865,15.0206 94.5,31.5C 94.204,39.0187 93.5373,46.3521 92.5,53.5 Z"/></g>
<g><path style="opacity:1" fill="#9f6360" d="M 171.5,44.5 C 170.057,43.6649 169.057,42.3316 168.5,40.5C 166.958,39.2532 165.458,39.2532 164,40.5C 162.95,47.1891 162.783,53.8558 163.5,60.5C 166.169,62.4978 167.836,65.1644 168.5,68.5C 169.822,68.33 170.989,68.6634 172,69.5C 172.477,61.8219 172.31,54.1552 171.5,46.5C 175.245,57.6598 175.412,68.9931 172,80.5C 171.82,77.0445 171.153,73.7111 170,70.5C 166.748,69.351 164.915,67.0176 164.5,63.5C 163.349,62.269 162.183,62.269 161,63.5C 159,48.81 159.334,34.1433 162,19.5C 162.308,18.6919 162.808,18.0253 163.5,17.5C 167.368,26.1079 170.035,35.1079 171.5,44.5 Z"/></g>
<g><path style="opacity:1" fill="#d6ad45" d="M 158.5,6.5 C 157.288,16.0401 153.955,24.7068 148.5,32.5C 148.201,30.396 148.534,28.396 149.5,26.5C 153.727,22.0329 155.56,16.6996 155,10.5C 155.498,8.45559 156.665,7.12225 158.5,6.5 Z"/></g>
<g><path style="opacity:1" fill="#aa6661" d="M 92.5,53.5 C 92.6621,55.5273 92.4955,57.5273 92,59.5C 90.4878,60.2567 89.1545,61.2567 88,62.5C 87.3946,60.5188 86.3946,60.1854 85,61.5C 82.0074,66.8109 80.0074,72.4775 79,78.5C 78.6667,77.8333 78.3333,77.1667 78,76.5C 74.7376,59.8279 77.2376,44.1613 85.5,29.5C 87.6345,28.2965 88.9678,26.4632 89.5,24C 90.448,23.5172 91.448,23.3505 92.5,23.5C 92.5,33.5 92.5,43.5 92.5,53.5 Z"/></g>
<g><path style="opacity:1" fill="#d2aa49" d="M 100.5,11.5 C 102.218,13.3637 103.385,15.6971 104,18.5C 105.044,27.0109 106.878,35.3442 109.5,43.5C 108.065,41.4024 106.898,39.0691 106,36.5C 104.304,28.1232 102.471,19.7899 100.5,11.5 Z"/></g>
<g><path style="opacity:1" fill="#090402" d="M 118.5,93.5 C 117.162,95.1128 115.495,95.6128 113.5,95C 109.805,92.49 106.138,89.99 102.5,87.5C 100.143,87.3367 97.8098,87.5034 95.5,88C 91.7713,89.5371 88.1046,91.0371 84.5,92.5C 85.9845,86.495 89.3178,81.6617 94.5,78C 104.75,71.8783 113.083,73.7116 119.5,83.5C 120.251,82.624 120.751,81.624 121,80.5C 122.034,85.2581 121.201,89.5914 118.5,93.5 Z"/></g>
<g><path style="opacity:1" fill="#080302" d="M 156.5,77.5 C 160.299,81.0906 163.633,85.0906 166.5,89.5C 166.762,90.9778 166.429,92.3112 165.5,93.5C 154.779,87.7347 144.446,88.4013 134.5,95.5C 133.346,89.013 133.179,82.3464 134,75.5C 134.249,76.624 134.749,77.624 135.5,78.5C 142.388,76.2227 149.388,75.8894 156.5,77.5 Z"/></g>
<g><path style="opacity:1" fill="#a78f79" d="M 157.5,75.5 C 161.662,79.0013 164.662,83.3346 166.5,88.5C 166.5,88.8333 166.5,89.1667 166.5,89.5C 163.633,85.0906 160.299,81.0906 156.5,77.5C 157.338,77.1583 157.672,76.4916 157.5,75.5 Z"/></g>
<g><path style="opacity:1" fill="#7b574f" d="M 102.5,87.5 C 106.138,89.99 109.805,92.49 113.5,95C 115.495,95.6128 117.162,95.1128 118.5,93.5C 117.993,97.0835 116.993,100.417 115.5,103.5C 113.007,94.3535 107.007,90.3535 97.5,91.5C 99.5061,90.5149 101.173,89.1816 102.5,87.5 Z"/></g>
<g><path style="opacity:1" fill="#100d0c" d="M 97.5,91.5 C 107.007,90.3535 113.007,94.3535 115.5,103.5C 115.353,106.792 114.353,109.792 112.5,112.5C 106.889,117.792 100.556,118.792 93.5,115.5C 89.7329,111.801 87.3996,107.301 86.5,102C 88.8076,97.1614 92.4743,93.6614 97.5,91.5 Z"/></g>
<g><path style="opacity:1" fill="#ededed" d="M 97.5,93.5 C 99.1992,93.3398 100.866,93.5065 102.5,94C 97.4041,98.2485 96.2375,103.415 99,109.5C 99.9025,110.701 101.069,111.535 102.5,112C 104.995,112.157 107.328,112.324 109.5,112.5C 105.95,115.28 101.95,116.114 97.5,115C 95.3333,114.167 93.8333,112.667 93,110.5C 89.7469,103.319 91.2469,97.6522 97.5,93.5 Z"/></g>
<g><path style="opacity:1" fill="#100e0e" d="M 158.5,114.5 C 153.71,117.946 148.71,118.279 143.5,115.5C 138.022,111.521 136.189,106.188 138,99.5C 143.093,91.2573 149.926,89.4239 158.5,94C 160.96,95.4578 163.127,97.2911 165,99.5C 164.499,105.174 162.332,110.174 158.5,114.5 Z"/></g>
<g><path style="opacity:1" fill="#d6ac47" d="M 184.5,99.5 C 183.403,101.774 182.07,103.941 180.5,106C 182.626,107.493 184.626,108.993 186.5,110.5C 182.327,110.123 178.327,109.123 174.5,107.5C 174.833,106.5 175.5,105.833 176.5,105.5C 179.45,103.885 182.116,101.885 184.5,99.5 Z"/></g>
<g><path style="opacity:1" fill="#3f333f" d="M 136.5,114.5 C 138.79,116.339 141.123,116.672 143.5,115.5C 148.71,118.279 153.71,117.946 158.5,114.5C 174.927,114.654 180.594,122.654 175.5,138.5C 175.624,139.107 175.957,139.44 176.5,139.5C 176.167,140.167 175.833,140.833 175.5,141.5C 172.87,143.628 170.37,145.961 168,148.5C 164.054,154.779 159.721,160.779 155,166.5C 158.127,157.203 160.127,147.537 161,137.5C 163.236,130.524 166.57,129.857 171,135.5C 170.805,133.255 169.638,131.422 167.5,130C 163.248,130.568 160.414,133.068 159,137.5C 158.4,145.307 157.066,152.974 155,160.5C 148.484,175.395 137.984,179.061 123.5,171.5C 110.439,177.063 101.273,173.063 96,159.5C 95.6667,153.167 95.3333,146.833 95,140.5C 93.7531,132.574 89.2531,129.407 81.5,131C 79.9926,131.837 79.4926,133.004 80,134.5C 86.1504,130.383 90.4837,132.05 93,139.5C 92.8419,148.729 94.0086,157.729 96.5,166.5C 93.1938,162.527 89.5271,158.86 85.5,155.5C 83.1892,151.66 81.0226,147.66 79,143.5C 75.3581,136.21 75.6915,129.21 80,122.5C 81.8567,119.8 84.3567,118.134 87.5,117.5C 93.5245,118.128 99.5245,118.628 105.5,119C 108.595,118.065 110.929,116.231 112.5,113.5C 115.905,110.762 119.572,108.429 123.5,106.5C 128.663,107.91 132.997,110.577 136.5,114.5 Z"/></g>
<g><path style="opacity:1" fill="#b0c3c7" d="M 99.5,104.5 C 102.311,107.85 105.978,109.35 110.5,109C 106.879,111.09 103.379,110.923 100,108.5C 99.51,107.207 99.3433,105.873 99.5,104.5 Z"/></g>
<g><path style="opacity:1" fill="#8b5a55" d="M 166.5,88.5 C 166.833,88.5 167.167,88.5 167.5,88.5C 168.43,95.1363 170.096,101.47 172.5,107.5C 176.106,109.793 180.106,111.293 184.5,112C 182.939,112.941 181.605,114.108 180.5,115.5C 184.122,116.325 187.789,116.825 191.5,117C 189.356,119.979 187.022,122.812 184.5,125.5C 185.811,126.258 186.311,127.258 186,128.5C 182.998,132.334 179.831,136 176.5,139.5C 175.957,139.44 175.624,139.107 175.5,138.5C 180.594,122.654 174.927,114.654 158.5,114.5C 162.332,110.174 164.499,105.174 165,99.5C 163.127,97.2911 160.96,95.4578 158.5,94C 149.926,89.4239 143.093,91.2573 138,99.5C 136.189,106.188 138.022,111.521 143.5,115.5C 141.123,116.672 138.79,116.339 136.5,114.5C 134.898,108.287 134.232,101.954 134.5,95.5C 144.446,88.4013 154.779,87.7347 165.5,93.5C 166.429,92.3112 166.762,90.9778 166.5,89.5C 166.5,89.1667 166.5,88.8333 166.5,88.5 Z"/></g>
<g><path style="opacity:1" fill="#a7babd" d="M 150.5,99.5 C 153.526,103.546 152.859,107.046 148.5,110C 145.621,110.874 142.955,110.54 140.5,109C 147.638,109.693 150.972,106.526 150.5,99.5 Z"/></g>
<g><path style="opacity:1" fill="#eaeaea" d="M 145.5,94.5 C 150.579,93.535 154.912,95.2017 158.5,99.5C 160.087,104.638 159.42,109.471 156.5,114C 151.573,116.298 146.906,115.964 142.5,113C 152.677,112.148 155.843,106.981 152,97.5C 149.948,96.2071 147.781,95.2071 145.5,94.5 Z"/></g>
<g><path style="opacity:1" fill="#dfb344" d="M 186.5,110.5 C 187.859,111.007 188.859,112.007 189.5,113.5C 191.071,112.691 192.738,112.357 194.5,112.5C 195.154,116.586 193.988,119.919 191,122.5C 190.9,126.373 189.4,129.373 186.5,131.5C 187.248,125.734 189.581,120.734 193.5,116.5C 193.043,115.702 192.376,115.369 191.5,115.5C 189.5,114.833 187.5,114.167 185.5,113.5C 186.404,112.791 186.737,111.791 186.5,110.5 Z"/></g>
<g><path style="opacity:1" fill="#7a5b19" d="M 185.5,113.5 C 187.5,114.167 189.5,114.833 191.5,115.5C 188.813,115.664 186.146,115.497 183.5,115C 184.044,114.283 184.711,113.783 185.5,113.5 Z"/></g>
<g><path style="opacity:1" fill="#9b8475" d="M 112.5,112.5 C 112.5,112.833 112.5,113.167 112.5,113.5C 110.929,116.231 108.595,118.065 105.5,119C 99.5245,118.628 93.5245,118.128 87.5,117.5C 87.5,117.167 87.5,116.833 87.5,116.5C 89.7354,116.795 91.7354,116.461 93.5,115.5C 100.556,118.792 106.889,117.792 112.5,112.5 Z"/></g>
<g><path style="opacity:1" fill="#cca37b" d="M 87.5,116.5 C 87.5,116.833 87.5,117.167 87.5,117.5C 84.3567,118.134 81.8567,119.8 80,122.5C 75.6915,129.21 75.3581,136.21 79,143.5C 81.0226,147.66 83.1892,151.66 85.5,155.5C 82.6588,153.108 79.3254,151.608 75.5,151C 74.2125,149.59 73.0458,148.09 72,146.5C 68.8708,147.13 65.7041,147.796 62.5,148.5C 63.5244,149.852 64.5244,151.185 65.5,152.5C 62.6296,151.472 60.6296,149.472 59.5,146.5C 63.08,146.258 66.7467,146.091 70.5,146C 68.6079,145.027 66.6079,144.36 64.5,144C 66.1654,142.16 68.1654,141.493 70.5,142C 73.2953,143.793 75.7953,145.96 78,148.5C 78.1667,148.167 78.3333,147.833 78.5,147.5C 74.5154,143.015 70.3487,138.682 66,134.5C 65.2086,133.255 64.7086,131.922 64.5,130.5C 67.9476,131.641 70.1143,133.974 71,137.5C 72.2408,139.421 73.7408,139.754 75.5,138.5C 74.0672,133.767 74.2338,129.1 76,124.5C 78.0612,119.27 81.8946,116.604 87.5,116.5 Z"/></g>
<g><path style="opacity:1" fill="#daae43" d="M 186.5,131.5 C 185.588,133.595 184.421,135.595 183,137.5C 182.506,139.134 182.34,140.801 182.5,142.5C 185.482,142.104 188.149,142.771 190.5,144.5C 191.782,145.958 191.782,147.292 190.5,148.5C 190.586,147.504 190.252,146.671 189.5,146C 186.956,144.908 184.289,144.241 181.5,144C 179.939,143.059 178.605,141.892 177.5,140.5C 180.188,137.146 183.188,134.146 186.5,131.5 Z"/></g>
<g><path style="opacity:1" fill="#d7a877" d="M 85.5,155.5 C 89.5271,158.86 93.1938,162.527 96.5,166.5C 97.2341,167.708 97.5674,169.041 97.5,170.5C 99.8588,178.601 102.525,186.601 105.5,194.5C 97.2589,193.752 89.2589,191.918 81.5,189C 73.7342,186.589 69.9009,181.422 70,173.5C 73.0113,177.07 76.178,179.736 79.5,181.5C 76.8567,177.023 73.3567,173.357 69,170.5C 66.9643,167.598 66.131,164.598 66.5,161.5C 72.6199,164.644 78.1199,168.644 83,173.5C 82.8047,171.255 81.6381,169.422 79.5,168C 73.2474,164.742 67.9141,160.409 63.5,155C 66.76,155.482 70.0934,155.482 73.5,155C 70.4776,154.902 67.8109,154.068 65.5,152.5C 64.5244,151.185 63.5244,149.852 62.5,148.5C 65.7041,147.796 68.8708,147.13 72,146.5C 73.0458,148.09 74.2125,149.59 75.5,151C 79.3254,151.608 82.6588,153.108 85.5,155.5 Z"/></g>
<g><path style="opacity:1" fill="#d9b04a" d="M 190.5,148.5 C 189.969,150.544 188.802,152.211 187,153.5C 186.504,158.806 184.671,163.472 181.5,167.5C 183.1,162.532 184.6,157.532 186,152.5C 187.371,150.959 188.871,149.625 190.5,148.5 Z"/></g>
<g><path style="opacity:1" fill="#915a55" d="M 175.5,142.5 C 179.47,144.98 183.803,146.647 188.5,147.5C 184.758,152.571 179.758,155.571 173.5,156.5C 176.596,157.619 179.596,157.286 182.5,155.5C 183.725,157.843 183.059,159.677 180.5,161C 177.397,162.439 174.564,164.273 172,166.5C 171.312,167.332 171.479,167.998 172.5,168.5C 174.917,165.917 177.751,163.917 181,162.5C 176.293,171.728 171.126,180.895 165.5,190C 146.724,197.657 127.391,199.49 107.5,195.5C 107.158,194.662 106.492,194.328 105.5,194.5C 102.525,186.601 99.8588,178.601 97.5,170.5C 106.905,190.469 121.571,195.635 141.5,186C 153.43,171.911 164.763,157.411 175.5,142.5 Z"/></g>
<g><path style="opacity:1" fill="#160a0e" d="M 175.5,141.5 C 175.5,141.833 175.5,142.167 175.5,142.5C 164.763,157.411 153.43,171.911 141.5,186C 121.571,195.635 106.905,190.469 97.5,170.5C 97.5674,169.041 97.2341,167.708 96.5,166.5C 94.0086,157.729 92.8419,148.729 93,139.5C 90.4837,132.05 86.1504,130.383 80,134.5C 79.4926,133.004 79.9926,131.837 81.5,131C 89.2531,129.407 93.7531,132.574 95,140.5C 95.3333,146.833 95.6667,153.167 96,159.5C 101.273,173.063 110.439,177.063 123.5,171.5C 137.984,179.061 148.484,175.395 155,160.5C 157.066,152.974 158.4,145.307 159,137.5C 160.414,133.068 163.248,130.568 167.5,130C 169.638,131.422 170.805,133.255 171,135.5C 166.57,129.857 163.236,130.524 161,137.5C 160.127,147.537 158.127,157.203 155,166.5C 159.721,160.779 164.054,154.779 168,148.5C 170.37,145.961 172.87,143.628 175.5,141.5 Z"/></g>
<g><path style="opacity:1" fill="#3d323e" d="M 99.5,169.5 C 106.722,177.036 114.889,178.369 124,173.5C 132.573,179.037 140.906,178.703 149,172.5C 147.512,178.349 144.012,182.849 138.5,186C 120.139,193.153 107.139,187.653 99.5,169.5 Z"/></g>
<g><path style="opacity:1" fill="#0b090c" d="M 118.5,130.5 C 126.38,130.137 133.714,131.97 140.5,136C 147.475,142.03 148.309,148.863 143,156.5C 138.564,159.303 134.397,162.469 130.5,166C 127.833,166.667 125.167,166.667 122.5,166C 116.291,160.491 110.457,154.658 105,148.5C 103.632,142.731 105.466,138.231 110.5,135C 113.391,133.726 116.058,132.226 118.5,130.5 Z"/></g>
<g><path style="opacity:1" fill="#4c4c4c" d="M 135.5,146.5 C 137.306,147.024 138.972,147.691 140.5,148.5C 134.623,148.206 132.123,150.872 133,156.5C 134.509,157.09 136.009,157.756 137.5,158.5C 133.736,163.716 128.736,165.549 122.5,164C 118.575,161.726 117.575,158.56 119.5,154.5C 119.61,152.626 118.944,151.126 117.5,150C 113.957,149.856 110.624,149.689 107.5,149.5C 109.05,148.559 110.716,147.893 112.5,147.5C 119.859,145.011 127.192,145.011 134.5,147.5C 135.107,147.376 135.44,147.043 135.5,146.5 Z"/></g>
<g><path style="opacity:1" fill="#787777" d="M 140.5,148.5 C 138.972,147.691 137.306,147.024 135.5,146.5C 134.833,146.5 134.5,146.167 134.5,145.5C 135.692,144.434 135.359,143.601 133.5,143C 128.905,141.607 124.239,141.274 119.5,142C 117.121,142.716 115.121,143.883 113.5,145.5C 113.167,146.167 112.833,146.833 112.5,147.5C 110.716,147.893 109.05,148.559 107.5,149.5C 105.08,143.137 107.08,138.304 113.5,135C 125.869,130.133 136.036,132.966 144,143.5C 144.808,145.579 144.641,147.579 143.5,149.5C 142.583,148.873 141.583,148.539 140.5,148.5 Z"/></g>
<g><path style="opacity:1" fill="#191919" d="M 134.5,145.5 C 134.5,146.167 134.833,146.5 135.5,146.5C 135.44,147.043 135.107,147.376 134.5,147.5C 127.192,145.011 119.859,145.011 112.5,147.5C 112.833,146.833 113.167,146.167 113.5,145.5C 120.546,142.946 127.546,142.946 134.5,145.5 Z"/></g>
<g><path style="opacity:1" fill="#a5a5a5" d="M 134.5,145.5 C 127.546,142.946 120.546,142.946 113.5,145.5C 115.121,143.883 117.121,142.716 119.5,142C 124.239,141.274 128.905,141.607 133.5,143C 135.359,143.601 135.692,144.434 134.5,145.5 Z"/></g>
<g><path style="opacity:1" fill="#d3a943" d="M 174.5,178.5 C 174.657,179.873 174.49,181.207 174,182.5C 171.689,187.417 169.189,192.084 166.5,196.5C 167.819,189.869 170.485,183.869 174.5,178.5 Z"/></g>
<g><path style="opacity:1" fill="#281608" d="M 172.5,107.5 C 173.167,107.5 173.833,107.5 174.5,107.5C 178.327,109.123 182.327,110.123 186.5,110.5C 186.737,111.791 186.404,112.791 185.5,113.5C 184.711,113.783 184.044,114.283 183.5,115C 186.146,115.497 188.813,115.664 191.5,115.5C 192.376,115.369 193.043,115.702 193.5,116.5C 189.581,120.734 187.248,125.734 186.5,131.5C 183.188,134.146 180.188,137.146 177.5,140.5C 178.605,141.892 179.939,143.059 181.5,144C 184.289,144.241 186.956,144.908 189.5,146C 190.252,146.671 190.586,147.504 190.5,148.5C 188.871,149.625 187.371,150.959 186,152.5C 184.6,157.532 183.1,162.532 181.5,167.5C 177.99,170.358 175.657,174.024 174.5,178.5C 170.485,183.869 167.819,189.869 166.5,196.5C 165.475,199.974 164.808,203.64 164.5,207.5C 163.883,207.611 163.383,207.944 163,208.5C 162.55,216.223 160.716,223.556 157.5,230.5C 154.949,232.578 153.116,235.244 152,238.5C 151.594,241.742 150.761,244.742 149.5,247.5C 149.336,244.813 149.503,242.146 150,239.5C 152.599,233.911 155.599,228.577 159,223.5C 160.075,219.23 160.575,214.897 160.5,210.5C 151.081,211.181 141.748,212.514 132.5,214.5C 130.97,214.64 129.97,215.307 129.5,216.5C 129.167,216.5 128.833,216.5 128.5,216.5C 128.802,213.941 128.468,211.607 127.5,209.5C 126.686,207.727 125.352,207.227 123.5,208C 124.766,210.989 126.1,213.822 127.5,216.5C 127.218,217.778 126.551,218.778 125.5,219.5C 125.167,219.5 124.833,219.5 124.5,219.5C 124.739,217.533 124.406,215.699 123.5,214C 120.183,213.502 116.85,213.335 113.5,213.5C 113.5,213.167 113.5,212.833 113.5,212.5C 115.554,212.635 117.221,211.968 118.5,210.5C 120.201,212.423 122.201,212.757 124.5,211.5C 123.372,210.738 122.205,210.071 121,209.5C 120.667,207.5 120.333,205.5 120,203.5C 119.31,202.262 118.81,202.262 118.5,203.5C 117.662,203.158 117.328,202.492 117.5,201.5C 117.5,201.167 117.5,200.833 117.5,200.5C 120.837,201.484 122.337,203.817 122,207.5C 123.523,205.38 125.356,205.047 127.5,206.5C 128.436,201.004 130.436,200.337 133.5,204.5C 133.5,205.167 133.5,205.833 133.5,206.5C 133.5,208.5 133.5,210.5 133.5,212.5C 142.767,210.685 152.1,209.185 161.5,208C 162,207.5 162.5,207 163,206.5C 163.264,202.045 164.098,197.711 165.5,193.5C 165,193.167 164.5,192.833 164,192.5C 148.699,198.861 132.866,200.861 116.5,198.5C 112.147,197.941 107.814,197.275 103.5,196.5C 104.568,195.566 105.901,195.232 107.5,195.5C 127.391,199.49 146.724,197.657 165.5,190C 171.126,180.895 176.293,171.728 181,162.5C 177.751,163.917 174.917,165.917 172.5,168.5C 171.479,167.998 171.312,167.332 172,166.5C 174.564,164.273 177.397,162.439 180.5,161C 183.059,159.677 183.725,157.843 182.5,155.5C 179.596,157.286 176.596,157.619 173.5,156.5C 179.758,155.571 184.758,152.571 188.5,147.5C 183.803,146.647 179.47,144.98 175.5,142.5C 175.5,142.167 175.5,141.833 175.5,141.5C 175.833,140.833 176.167,140.167 176.5,139.5C 179.831,136 182.998,132.334 186,128.5C 186.311,127.258 185.811,126.258 184.5,125.5C 187.022,122.812 189.356,119.979 191.5,117C 187.789,116.825 184.122,116.325 180.5,115.5C 181.605,114.108 182.939,112.941 184.5,112C 180.106,111.293 176.106,109.793 172.5,107.5 Z"/></g>
<g><path style="opacity:1" fill="#f7d437" d="M 103.5,196.5 C 107.814,197.275 112.147,197.941 116.5,198.5C 116.833,199.167 117.167,199.833 117.5,200.5C 117.5,200.833 117.5,201.167 117.5,201.5C 116.521,204.625 116.187,207.958 116.5,211.5C 113.5,211.5 110.5,211.5 107.5,211.5C 89.312,212.469 78.1453,204.136 74,186.5C 83.0715,192.06 92.9048,195.393 103.5,196.5 Z"/></g>
<g><path style="opacity:1" fill="#311f0d" d="M 73.5,104.5 C 73.8333,104.5 74.1667,104.5 74.5,104.5C 74.5,105.167 74.5,105.833 74.5,106.5C 73.9423,107.79 72.9423,108.623 71.5,109C 68.4245,109.346 65.4245,110.012 62.5,111C 64.1558,112.829 66.1558,114.163 68.5,115C 66.765,115.651 65.0983,115.485 63.5,114.5C 62.8409,117.728 63.8409,120.561 66.5,123C 64.6133,123.163 63.1133,122.329 62,120.5C 61.3204,124.28 62.1538,127.614 64.5,130.5C 64.7086,131.922 65.2086,133.255 66,134.5C 70.3487,138.682 74.5154,143.015 78.5,147.5C 78.3333,147.833 78.1667,148.167 78,148.5C 75.7953,145.96 73.2953,143.793 70.5,142C 68.1654,141.493 66.1654,142.16 64.5,144C 66.6079,144.36 68.6079,145.027 70.5,146C 66.7467,146.091 63.08,146.258 59.5,146.5C 60.6296,149.472 62.6296,151.472 65.5,152.5C 67.8109,154.068 70.4776,154.902 73.5,155C 70.0934,155.482 66.76,155.482 63.5,155C 67.9141,160.409 73.2474,164.742 79.5,168C 81.6381,169.422 82.8047,171.255 83,173.5C 78.1199,168.644 72.6199,164.644 66.5,161.5C 66.131,164.598 66.9643,167.598 69,170.5C 73.3567,173.357 76.8567,177.023 79.5,181.5C 76.178,179.736 73.0113,177.07 70,173.5C 69.9009,181.422 73.7342,186.589 81.5,189C 89.2589,191.918 97.2589,193.752 105.5,194.5C 106.492,194.328 107.158,194.662 107.5,195.5C 105.901,195.232 104.568,195.566 103.5,196.5C 92.9048,195.393 83.0715,192.06 74,186.5C 78.1453,204.136 89.312,212.469 107.5,211.5C 109.265,212.461 111.265,212.795 113.5,212.5C 113.5,212.833 113.5,213.167 113.5,213.5C 103.574,214.481 94.241,212.981 85.5,209C 89.5034,214.175 94.5034,218.008 100.5,220.5C 101.251,219.624 101.751,218.624 102,217.5C 105.357,221.421 109.19,224.755 113.5,227.5C 107.189,224.074 100.523,221.24 93.5,219C 89.6667,216.5 86.5,213.333 84,209.5C 73.594,193.946 66.9274,176.946 64,158.5C 61.5546,153.576 59.3879,148.576 57.5,143.5C 61.9463,144.378 65.2796,142.878 67.5,139C 64.4404,135.719 62.2737,131.885 61,127.5C 60.3333,121.5 60.3333,115.5 61,109.5C 64.0757,108.712 67.2423,108.212 70.5,108C 72.4257,107.578 73.4257,106.411 73.5,104.5 Z"/></g>
<g><path style="opacity:1" fill="#ddc148" d="M 133.5,206.5 C 134.434,207.568 134.768,208.901 134.5,210.5C 141.067,209.125 147.734,208.291 154.5,208C 161.676,206.308 164.176,201.808 162,194.5C 152.585,198.317 142.752,200.484 132.5,201C 133.337,202.011 133.67,203.178 133.5,204.5C 130.436,200.337 128.436,201.004 127.5,206.5C 125.356,205.047 123.523,205.38 122,207.5C 122.337,203.817 120.837,201.484 117.5,200.5C 117.167,199.833 116.833,199.167 116.5,198.5C 132.866,200.861 148.699,198.861 164,192.5C 164.5,192.833 165,193.167 165.5,193.5C 164.098,197.711 163.264,202.045 163,206.5C 162.5,207 162,207.5 161.5,208C 152.1,209.185 142.767,210.685 133.5,212.5C 133.5,210.5 133.5,208.5 133.5,206.5 Z"/></g>
<g><path style="opacity:1" fill="#fed82e" d="M 133.5,206.5 C 133.5,205.833 133.5,205.167 133.5,204.5C 133.67,203.178 133.337,202.011 132.5,201C 142.752,200.484 152.585,198.317 162,194.5C 164.176,201.808 161.676,206.308 154.5,208C 147.734,208.291 141.067,209.125 134.5,210.5C 134.768,208.901 134.434,207.568 133.5,206.5 Z"/></g>
<g><path style="opacity:1" fill="#50410e" d="M 117.5,201.5 C 117.328,202.492 117.662,203.158 118.5,203.5C 118.5,205.833 118.5,208.167 118.5,210.5C 117.221,211.968 115.554,212.635 113.5,212.5C 111.265,212.795 109.265,212.461 107.5,211.5C 110.5,211.5 113.5,211.5 116.5,211.5C 116.187,207.958 116.521,204.625 117.5,201.5 Z"/></g>
<g><path style="opacity:1" fill="#c5b867" d="M 118.5,210.5 C 118.5,208.167 118.5,205.833 118.5,203.5C 118.81,202.262 119.31,202.262 120,203.5C 120.333,205.5 120.667,207.5 121,209.5C 122.205,210.071 123.372,210.738 124.5,211.5C 122.201,212.757 120.201,212.423 118.5,210.5 Z"/></g>
<g><path style="opacity:1" fill="#b3a65f" d="M 130.5,204.5 C 133.048,207.209 133.048,209.876 130.5,212.5C 129.795,209.911 129.795,207.244 130.5,204.5 Z"/></g>
<g><path style="opacity:1" fill="#cdbf5e" d="M 127.5,209.5 C 127.5,211.833 127.5,214.167 127.5,216.5C 126.1,213.822 124.766,210.989 123.5,208C 125.352,207.227 126.686,207.727 127.5,209.5 Z"/></g>
<g><path style="opacity:1" fill="#925b54" d="M 149.5,247.5 C 149.167,247.5 148.833,247.5 148.5,247.5C 148.322,244.784 147.822,242.117 147,239.5C 146.502,237.456 145.335,236.122 143.5,235.5C 145.459,229.284 147.625,223.284 150,217.5C 147.225,221.396 144.725,225.396 142.5,229.5C 138.527,224.86 134.194,220.527 129.5,216.5C 129.97,215.307 130.97,214.64 132.5,214.5C 141.748,212.514 151.081,211.181 160.5,210.5C 160.575,214.897 160.075,219.23 159,223.5C 155.599,228.577 152.599,233.911 150,239.5C 149.503,242.146 149.336,244.813 149.5,247.5 Z"/></g>
<g><path style="opacity:1" fill="#d4a777" d="M 113.5,213.5 C 116.85,213.335 120.183,213.502 123.5,214C 124.406,215.699 124.739,217.533 124.5,219.5C 120.767,221.232 118.101,223.899 116.5,227.5C 115.5,227.5 114.5,227.5 113.5,227.5C 109.19,224.755 105.357,221.421 102,217.5C 101.751,218.624 101.251,219.624 100.5,220.5C 94.5034,218.008 89.5034,214.175 85.5,209C 94.241,212.981 103.574,214.481 113.5,213.5 Z"/></g>
<g><path style="opacity:1" fill="#dfb344" d="M 164.5,207.5 C 164.666,212.844 164.499,218.177 164,223.5C 163.667,223.167 163.333,222.833 163,222.5C 162.059,225.914 160.226,228.581 157.5,230.5C 160.716,223.556 162.55,216.223 163,208.5C 163.383,207.944 163.883,207.611 164.5,207.5 Z"/></g>
<g><path style="opacity:1" fill="#cca47d" d="M 128.5,216.5 C 128.833,216.5 129.167,216.5 129.5,216.5C 134.194,220.527 138.527,224.86 142.5,229.5C 142.242,234.717 142.575,239.884 143.5,245C 142.922,246.811 142.422,248.645 142,250.5C 138.865,248.199 136.698,245.199 135.5,241.5C 136.655,240.05 138.155,239.05 140,238.5C 140.495,236.527 140.662,234.527 140.5,232.5C 139.599,230.273 137.933,229.273 135.5,229.5C 135.657,228.127 135.49,226.793 135,225.5C 132.59,222.603 130.423,219.603 128.5,216.5 Z"/></g>
<g><path style="opacity:1" fill="#302409" d="M 127.5,209.5 C 128.468,211.607 128.802,213.941 128.5,216.5C 130.423,219.603 132.59,222.603 135,225.5C 135.49,226.793 135.657,228.127 135.5,229.5C 137.933,229.273 139.599,230.273 140.5,232.5C 140.167,232.5 139.833,232.5 139.5,232.5C 138.176,231.15 137.176,231.317 136.5,233C 136.836,234.03 137.503,234.53 138.5,234.5C 139.833,237.167 139.167,237.833 136.5,236.5C 135.213,234.363 134.379,232.03 134,229.5C 132.951,230.517 131.784,230.684 130.5,230C 128.983,228.315 127.316,226.815 125.5,225.5C 124.019,226.48 122.685,227.647 121.5,229C 120.216,229.684 119.049,229.517 118,228.5C 117.192,230.579 117.359,232.579 118.5,234.5C 119.293,234.069 120.127,233.735 121,233.5C 122.663,235.328 124.496,236.995 126.5,238.5C 128.204,236.959 130.037,235.625 132,234.5C 133.301,234.639 134.134,235.305 134.5,236.5C 134.167,236.5 133.833,236.5 133.5,236.5C 131.037,237.233 128.703,238.233 126.5,239.5C 124.272,238.781 122.439,237.448 121,235.5C 121.058,237.435 121.891,239.102 123.5,240.5C 122.833,240.5 122.5,240.833 122.5,241.5C 121.206,240.71 120.039,239.71 119,238.5C 118.308,239.025 117.808,239.692 117.5,240.5C 119.19,242.519 120.856,244.519 122.5,246.5C 121.833,246.5 121.5,246.833 121.5,247.5C 119.605,246.027 117.939,244.36 116.5,242.5C 114.873,239.542 112.873,236.875 110.5,234.5C 110.757,232.308 111.757,230.641 113.5,229.5C 113.5,228.833 113.5,228.167 113.5,227.5C 114.5,227.5 115.5,227.5 116.5,227.5C 118.101,223.899 120.767,221.232 124.5,219.5C 124.833,219.5 125.167,219.5 125.5,219.5C 126.551,218.778 127.218,217.778 127.5,216.5C 127.5,214.167 127.5,211.833 127.5,209.5 Z"/></g>
<g><path style="opacity:1" fill="#e5d454" d="M 125.5,219.5 C 129.602,221.266 132.269,224.266 133.5,228.5C 132.448,228.649 131.448,228.483 130.5,228C 129.32,226.104 127.82,224.604 126,223.5C 124.037,224.625 122.204,225.959 120.5,227.5C 119.692,227.192 119.025,226.692 118.5,226C 120.907,223.817 123.24,221.65 125.5,219.5 Z"/></g>
<g><path style="opacity:1" fill="#b6ab63" d="M 113.5,229.5 C 116.674,229.952 117.007,230.952 114.5,232.5C 113.614,231.675 113.281,230.675 113.5,229.5 Z"/></g>
<g><path style="opacity:1" fill="#c6b768" d="M 139.5,232.5 C 139.672,233.492 139.338,234.158 138.5,234.5C 137.503,234.53 136.836,234.03 136.5,233C 137.176,231.317 138.176,231.15 139.5,232.5 Z"/></g>
<g><path style="opacity:1" fill="#b2995b" d="M 111.5,233.5 C 113.337,233.639 113.67,234.306 112.5,235.5C 111.702,235.043 111.369,234.376 111.5,233.5 Z"/></g>
<g><path style="opacity:1" fill="#b89e5a" d="M 114.5,234.5 C 117.569,234.963 118.069,236.296 116,238.5C 114.812,237.437 114.312,236.103 114.5,234.5 Z"/></g>
<g><path style="opacity:1" fill="#d7c451" d="M 136.5,236.5 C 136.631,237.239 136.464,237.906 136,238.5C 135.722,237.584 135.222,236.918 134.5,236.5C 134.134,235.305 133.301,234.639 132,234.5C 130.037,235.625 128.204,236.959 126.5,238.5C 124.496,236.995 122.663,235.328 121,233.5C 120.127,233.735 119.293,234.069 118.5,234.5C 117.359,232.579 117.192,230.579 118,228.5C 119.049,229.517 120.216,229.684 121.5,229C 122.685,227.647 124.019,226.48 125.5,225.5C 127.316,226.815 128.983,228.315 130.5,230C 131.784,230.684 132.951,230.517 134,229.5C 134.379,232.03 135.213,234.363 136.5,236.5 Z"/></g>
<g><path style="opacity:1" fill="#2f2501" d="M 127.5,233.5 C 125.028,234.935 123.362,234.101 122.5,231C 125.12,228.901 127.453,229.234 129.5,232C 128.956,232.717 128.289,233.217 127.5,233.5 Z"/></g>
<g><path style="opacity:1" fill="#baad5c" d="M 127.5,233.5 C 126.005,233.585 125.005,232.919 124.5,231.5C 126.396,230.361 127.396,231.027 127.5,233.5 Z"/></g>
<g><path style="opacity:1" fill="#271707" d="M 143.5,235.5 C 143.259,240.481 144.926,244.481 148.5,247.5C 148.833,247.5 149.167,247.5 149.5,247.5C 148.304,249.981 146.804,249.981 145,247.5C 144.506,249.134 144.34,250.801 144.5,252.5C 139.963,250.97 136.63,247.97 134.5,243.5C 132.016,245.483 129.683,247.65 127.5,250C 124.706,250.972 122.706,250.139 121.5,247.5C 121.5,246.833 121.833,246.5 122.5,246.5C 123.74,248.985 124.74,248.985 125.5,246.5C 126.222,246.918 126.722,247.584 127,248.5C 129.935,246.273 131.935,243.606 133,240.5C 131.114,243.242 128.614,244.909 125.5,245.5C 124.5,244.167 123.5,242.833 122.5,241.5C 122.5,240.833 122.833,240.5 123.5,240.5C 124.406,242.914 126.072,243.747 128.5,243C 130.79,241.223 132.457,239.056 133.5,236.5C 133.833,236.5 134.167,236.5 134.5,236.5C 135.222,236.918 135.722,237.584 136,238.5C 136.464,237.906 136.631,237.239 136.5,236.5C 139.167,237.833 139.833,237.167 138.5,234.5C 139.338,234.158 139.672,233.492 139.5,232.5C 139.833,232.5 140.167,232.5 140.5,232.5C 140.662,234.527 140.495,236.527 140,238.5C 138.155,239.05 136.655,240.05 135.5,241.5C 136.698,245.199 138.865,248.199 142,250.5C 142.422,248.645 142.922,246.811 143.5,245C 142.575,239.884 142.242,234.717 142.5,229.5C 144.725,225.396 147.225,221.396 150,217.5C 147.625,223.284 145.459,229.284 143.5,235.5 Z"/></g>
<g><path style="opacity:1" fill="#c79e7d" d="M 143.5,235.5 C 145.335,236.122 146.502,237.456 147,239.5C 147.822,242.117 148.322,244.784 148.5,247.5C 144.926,244.481 143.259,240.481 143.5,235.5 Z"/></g>
<g><path style="opacity:1" fill="#e0ce53" d="M 133.5,236.5 C 132.457,239.056 130.79,241.223 128.5,243C 126.072,243.747 124.406,242.914 123.5,240.5C 121.891,239.102 121.058,237.435 121,235.5C 122.439,237.448 124.272,238.781 126.5,239.5C 128.703,238.233 131.037,237.233 133.5,236.5 Z"/></g>
<g><path style="opacity:1" fill="#cfaf50" d="M 122.5,241.5 C 123.5,242.833 124.5,244.167 125.5,245.5C 125.5,245.833 125.5,246.167 125.5,246.5C 124.74,248.985 123.74,248.985 122.5,246.5C 120.856,244.519 119.19,242.519 117.5,240.5C 117.808,239.692 118.308,239.025 119,238.5C 120.039,239.71 121.206,240.71 122.5,241.5 Z"/></g>
<g><path style="opacity:1" fill="#8e7d4f" d="M 125.5,246.5 C 125.5,246.167 125.5,245.833 125.5,245.5C 128.614,244.909 131.114,243.242 133,240.5C 131.935,243.606 129.935,246.273 127,248.5C 126.722,247.584 126.222,246.918 125.5,246.5 Z"/></g>
<g><path style="opacity:1" fill="#e7b73c" d="M 157.5,230.5 C 156.286,233.93 154.786,237.264 153,240.5C 152.502,243.817 152.335,247.15 152.5,250.5C 150.5,250.5 148.5,250.5 146.5,250.5C 146.634,252.292 146.301,253.958 145.5,255.5C 138.833,255.5 132.167,255.5 125.5,255.5C 123.588,252.081 121.088,249.081 118,246.5C 117.209,245.255 116.709,243.922 116.5,242.5C 117.939,244.36 119.605,246.027 121.5,247.5C 122.706,250.139 124.706,250.972 127.5,250C 129.683,247.65 132.016,245.483 134.5,243.5C 136.63,247.97 139.963,250.97 144.5,252.5C 144.34,250.801 144.506,249.134 145,247.5C 146.804,249.981 148.304,249.981 149.5,247.5C 150.761,244.742 151.594,241.742 152,238.5C 153.116,235.244 154.949,232.578 157.5,230.5 Z"/></g>
</svg>
