<svg width="110" height="23" viewBox="0 0 110 23" fill="none" xmlns="http://www.w3.org/2000/svg">
<g style="mix-blend-mode:difference">
<path d="M34.874 10.0443V6.37029H38.108C38.416 6.37029 38.7094 6.39962 38.988 6.45829C39.2814 6.50229 39.538 6.59029 39.758 6.72229C39.978 6.85429 40.154 7.03762 40.286 7.27229C40.418 7.50695 40.484 7.80762 40.484 8.17429C40.484 8.83429 40.286 9.31095 39.89 9.60429C39.494 9.89762 38.988 10.0443 38.372 10.0443H34.874ZM31.42 3.68629V19.3943H39.032C39.736 19.3943 40.418 19.3063 41.078 19.1303C41.7527 18.9543 42.3467 18.683 42.86 18.3163C43.388 17.9496 43.806 17.4803 44.114 16.9083C44.422 16.3216 44.576 15.6323 44.576 14.8403C44.576 13.8576 44.334 13.0216 43.85 12.3323C43.3807 11.6283 42.662 11.137 41.694 10.8583C42.398 10.521 42.926 10.0883 43.278 9.56029C43.6447 9.03229 43.828 8.37229 43.828 7.58029C43.828 6.84695 43.7034 6.23095 43.454 5.73229C43.2194 5.23362 42.882 4.83762 42.442 4.54429C42.002 4.23629 41.474 4.01629 40.858 3.88429C40.242 3.75229 39.56 3.68629 38.812 3.68629H31.42ZM34.874 16.7103V12.3983H38.636C39.384 12.3983 39.9854 12.5743 40.44 12.9263C40.8947 13.2636 41.122 13.8356 41.122 14.6423C41.122 15.053 41.0487 15.3903 40.902 15.6543C40.77 15.9183 40.5867 16.131 40.352 16.2923C40.1174 16.439 39.846 16.549 39.538 16.6223C39.23 16.681 38.9073 16.7103 38.57 16.7103H34.874Z" fill="white"/>
<path d="M49.3522 13.7183C49.3522 13.2636 49.3963 12.8163 49.4842 12.3763C49.5723 11.9363 49.7189 11.5476 49.9243 11.2103C50.1442 10.873 50.4303 10.6016 50.7822 10.3963C51.1343 10.1763 51.5742 10.0663 52.1022 10.0663C52.6302 10.0663 53.0703 10.1763 53.4223 10.3963C53.7889 10.6016 54.0749 10.873 54.2803 11.2103C54.5003 11.5476 54.6543 11.9363 54.7423 12.3763C54.8302 12.8163 54.8743 13.2636 54.8743 13.7183C54.8743 14.173 54.8302 14.6203 54.7423 15.0603C54.6543 15.4856 54.5003 15.8743 54.2803 16.2263C54.0749 16.5636 53.7889 16.835 53.4223 17.0403C53.0703 17.2456 52.6302 17.3483 52.1022 17.3483C51.5742 17.3483 51.1343 17.2456 50.7822 17.0403C50.4303 16.835 50.1442 16.5636 49.9243 16.2263C49.7189 15.8743 49.5723 15.4856 49.4842 15.0603C49.3963 14.6203 49.3522 14.173 49.3522 13.7183ZM46.2283 13.7183C46.2283 14.6276 46.3676 15.449 46.6463 16.1823C46.9249 16.9156 47.3209 17.5463 47.8343 18.0743C48.3476 18.5876 48.9636 18.9836 49.6823 19.2623C50.4009 19.541 51.2076 19.6803 52.1022 19.6803C52.9969 19.6803 53.8036 19.541 54.5223 19.2623C55.2556 18.9836 55.8789 18.5876 56.3923 18.0743C56.9056 17.5463 57.3016 16.9156 57.5802 16.1823C57.8589 15.449 57.9983 14.6276 57.9983 13.7183C57.9983 12.809 57.8589 11.9876 57.5802 11.2543C57.3016 10.5063 56.9056 9.87562 56.3923 9.36229C55.8789 8.83429 55.2556 8.43095 54.5223 8.15229C53.8036 7.85895 52.9969 7.71229 52.1022 7.71229C51.2076 7.71229 50.4009 7.85895 49.6823 8.15229C48.9636 8.43095 48.3476 8.83429 47.8343 9.36229C47.3209 9.87562 46.9249 10.5063 46.6463 11.2543C46.3676 11.9876 46.2283 12.809 46.2283 13.7183Z" fill="white"/>
<path d="M70.6995 19.3943V8.02029H67.5755V13.9823C67.5755 15.141 67.3848 15.977 67.0035 16.4903C66.6221 16.989 66.0061 17.2383 65.1555 17.2383C64.4075 17.2383 63.8868 17.011 63.5935 16.5563C63.3001 16.087 63.1535 15.383 63.1535 14.4443V8.02029H60.0295V15.0163C60.0295 15.7203 60.0881 16.3656 60.2055 16.9523C60.3375 17.5243 60.5575 18.0156 60.8655 18.4263C61.1735 18.8223 61.5915 19.1303 62.1195 19.3503C62.6621 19.5703 63.3515 19.6803 64.1875 19.6803C64.8475 19.6803 65.4928 19.5336 66.1235 19.2403C66.7541 18.947 67.2675 18.4703 67.6635 17.8103H67.7295V19.3943H70.6995Z" fill="white"/>
<path d="M73.0705 8.02029V19.3943H76.1945V13.4323C76.1945 12.2736 76.3851 11.445 76.7665 10.9463C77.1478 10.433 77.7638 10.1763 78.6145 10.1763C79.3625 10.1763 79.8832 10.411 80.1765 10.8803C80.4698 11.335 80.6165 12.0316 80.6165 12.9703V19.3943H83.7405V12.3983C83.7405 11.6943 83.6745 11.0563 83.5425 10.4843C83.4252 9.89762 83.2125 9.40629 82.9045 9.01029C82.5965 8.59962 82.1712 8.28429 81.6285 8.06429C81.1005 7.82962 80.4185 7.71229 79.5825 7.71229C78.9225 7.71229 78.2772 7.86629 77.6465 8.17429C77.0158 8.46762 76.5025 8.94429 76.1065 9.60429H76.0405V8.02029H73.0705Z" fill="white"/>
<path d="M93.8555 12.0243H96.9135C96.8695 11.291 96.6935 10.6603 96.3855 10.1323C96.0775 9.58962 95.6742 9.14229 95.1755 8.79029C94.6915 8.42362 94.1342 8.15229 93.5035 7.97629C92.8875 7.80029 92.2422 7.71229 91.5675 7.71229C90.6435 7.71229 89.8222 7.86629 89.1035 8.17429C88.3848 8.48229 87.7762 8.91495 87.2775 9.47229C86.7788 10.015 86.3975 10.6676 86.1335 11.4303C85.8842 12.1783 85.7595 12.9923 85.7595 13.8723C85.7595 14.723 85.8988 15.5076 86.1775 16.2263C86.4562 16.9303 86.8448 17.539 87.3435 18.0523C87.8422 18.5656 88.4435 18.969 89.1475 19.2623C89.8662 19.541 90.6508 19.6803 91.5015 19.6803C93.0122 19.6803 94.2515 19.2843 95.2195 18.4923C96.1875 17.7003 96.7742 16.549 96.9795 15.0383H93.9655C93.8628 15.7423 93.6062 16.307 93.1955 16.7323C92.7995 17.143 92.2275 17.3483 91.4795 17.3483C90.9955 17.3483 90.5848 17.2383 90.2475 17.0183C89.9102 16.7983 89.6388 16.5196 89.4335 16.1823C89.2428 15.8303 89.1035 15.4416 89.0155 15.0163C88.9275 14.591 88.8835 14.173 88.8835 13.7623C88.8835 13.337 88.9275 12.9116 89.0155 12.4863C89.1035 12.0463 89.2502 11.6503 89.4555 11.2983C89.6755 10.9316 89.9542 10.6383 90.2915 10.4183C90.6288 10.1836 91.0468 10.0663 91.5455 10.0663C92.8802 10.0663 93.6502 10.719 93.8555 12.0243Z" fill="white"/>
<path d="M106.4 12.4863H101.318C101.333 12.2663 101.377 12.017 101.45 11.7383C101.538 11.4596 101.678 11.1956 101.868 10.9463C102.074 10.697 102.338 10.4916 102.66 10.3303C102.998 10.1543 103.416 10.0663 103.914 10.0663C104.677 10.0663 105.242 10.2716 105.608 10.6823C105.99 11.093 106.254 11.6943 106.4 12.4863ZM101.318 14.4663H109.524C109.583 13.5863 109.51 12.743 109.304 11.9363C109.099 11.1296 108.762 10.411 108.292 9.78029C107.838 9.14962 107.251 8.65095 106.532 8.28429C105.814 7.90295 104.97 7.71229 104.002 7.71229C103.137 7.71229 102.345 7.86629 101.626 8.17429C100.922 8.48229 100.314 8.90762 99.8003 9.45029C99.287 9.97829 98.891 10.609 98.6123 11.3423C98.3336 12.0756 98.1943 12.8676 98.1943 13.7183C98.1943 14.5983 98.3263 15.405 98.5903 16.1383C98.869 16.8716 99.2577 17.5023 99.7563 18.0303C100.255 18.5583 100.864 18.969 101.582 19.2623C102.301 19.541 103.108 19.6803 104.002 19.6803C105.293 19.6803 106.393 19.387 107.302 18.8003C108.212 18.2136 108.886 17.2383 109.326 15.8743H106.576C106.474 16.2263 106.195 16.5636 105.74 16.8863C105.286 17.1943 104.743 17.3483 104.112 17.3483C103.232 17.3483 102.558 17.121 102.088 16.6663C101.619 16.2116 101.362 15.4783 101.318 14.4663Z" fill="white"/>
<path d="M1.75428 0.144287C0.994888 0.144287 0.37928 0.759896 0.37928 1.51929C0.37928 2.27868 0.994888 2.89429 1.75428 2.89429H6.33761C7.09701 2.89429 7.71261 2.27868 7.71261 1.51929C7.71261 0.759896 7.09701 0.144287 6.33761 0.144287H1.75428Z" fill="white"/>
<path d="M14.1463 4.64284C14.8589 4.38032 15.2237 3.58985 14.9612 2.87728C14.6986 2.16471 13.9082 1.79987 13.1956 2.0624L1.27894 6.45275C0.566365 6.71528 0.201532 7.50575 0.464058 8.21832C0.726584 8.93089 1.51706 9.29572 2.22962 9.03319L14.1463 4.64284Z" fill="white"/>
<path d="M14.1463 15.8358C14.8589 15.5733 15.2237 14.7828 14.9612 14.0703C14.6986 13.3577 13.9082 12.9929 13.1956 13.2554L1.27894 17.6457C0.566365 17.9083 0.201532 18.6987 0.464058 19.4113C0.726584 20.1239 1.51706 20.4887 2.22962 20.2262L14.1463 15.8358Z" fill="white"/>
<path d="M9.08761 19.3943C8.32822 19.3943 7.71261 20.0099 7.71261 20.7693C7.71261 21.5287 8.32822 22.1443 9.08761 22.1443H13.6709C14.4303 22.1443 15.0459 21.5287 15.0459 20.7693C15.0459 20.0099 14.4303 19.3943 13.6709 19.3943H9.08761Z" fill="white"/>
<path d="M14.1645 10.1363C14.8733 9.86374 15.2269 9.06817 14.9543 8.3594C14.6817 7.65062 13.8861 7.29704 13.1774 7.56964L1.26068 12.153C0.551907 12.4256 0.198323 13.2211 0.470928 13.9299C0.743534 14.6387 1.5391 14.9923 2.24787 14.7197L14.1645 10.1363Z" fill="white"/>
</g>
</svg>
